<svg version="1.1" viewBox="0.0 0.0 640.0 396.0" fill="none" stroke="none" stroke-linecap="square" stroke-miterlimit="10" width="640" height="396" xmlns:xlink="http://www.w3.org/1999/xlink" xmlns="http://www.w3.org/2000/svg"><path fill="#ffffff" d="M0 0L640.0 0L640.0 396.0L0 396.0L0 0Z" fill-rule="nonzero"/><path fill="#4f81bd" d="M320.0 57.0C321.5981 57.0 323.19614 57.024002 324.79352 57.072002L320.0 216.6Z" fill-rule="nonzero"/><path fill="#c0504d" d="M324.79352 57.072002C329.32007 57.208015 333.83878 57.536625 338.33734 58.056942L320.0 216.6Z" fill-rule="nonzero"/><path fill="#9bbb59" d="M338.33734 58.056942C352.11514 59.6505 365.62643 63.03322 378.52972 68.1196L320.0 216.6Z" fill-rule="nonzero"/><path fill="#8064a2" d="M378.52972 68.1196C379.2731 68.41263 380.01428 68.711235 380.75317 69.0154L320.0 216.6Z" fill-rule="nonzero"/><path fill="#4bacc6" d="M380.75317 69.0154C382.9699 69.927925 385.16583 70.89028 387.3392 71.901726L320.0 216.6Z" fill-rule="nonzero"/><path fill="#f79646" d="M387.3392 71.901726C387.82217 72.12649 388.30402 72.35366 388.7847 72.583244L320.0 216.6Z" fill-rule="nonzero"/><path fill="#84a7d1" d="M388.7847 72.583244C389.5057 72.92761 390.22415 73.2774 390.9399 73.63256L320.0 216.6Z" fill-rule="nonzero"/><path fill="#d38582" d="M390.9399 73.63256C448.94403 102.41399 483.8097 163.3892 479.194 227.97667C474.5783 292.56415 431.39615 347.96173 369.8887 368.20236L320.0 216.6Z" fill-rule="nonzero"/><path fill="#b9cf8b" d="M369.8887 368.20236C369.6357 368.2856 369.3825 368.36826 369.1291 368.45023L320.0 216.6Z" fill-rule="nonzero"/><path fill="#a693be" d="M369.1291 368.45023C368.36884 368.6962 367.60675 368.93646 366.8429 369.17096L320.0 216.6Z" fill-rule="nonzero"/><path fill="#81c5d7" d="M366.8429 369.17096C353.83978 373.16324 340.37967 375.47684 326.7898 376.0555L320.0 216.6Z" fill-rule="nonzero"/><path fill="#f9b67e" d="M326.7898 376.0555C326.2576 376.07816 325.72525 376.09818 325.19284 376.1155L320.0 216.6Z" fill-rule="nonzero"/><path fill="#edf2f8" d="M163.55003 185.04736C178.57144 110.56553 244.01851 57.0 320.0 57.0L320.0 216.6Z" fill-rule="nonzero"/><path fill="#fcd5b5" d="M163.39403 185.83102C163.44537 185.56967 163.49738 185.30846 163.55003 185.04736L320.0 216.6Z" fill-rule="nonzero"/><path fill="#b7dee8" d="M205.67241 327.9614C169.09007 290.40466 153.28639 237.27625 163.39403 185.83102L320.0 216.6Z" fill-rule="nonzero"/><path fill="#ccc1da" d="M218.60614 339.85358C214.0798 336.13 209.76201 332.15994 205.67241 327.9614L320.0 216.6Z" fill-rule="nonzero"/><path fill="#d7e4bd" d="M231.43483 349.3719C227.0024 346.41522 222.72081 343.2385 218.60614 339.85358L320.0 216.6Z" fill-rule="nonzero"/><path fill="#e6b9b8" d="M297.30453 374.5781C273.743 371.19318 251.23698 362.58087 231.43483 349.3719L320.0 216.6Z" fill-rule="nonzero"/><path fill="#b9cde5" d="M325.19284 376.1155C315.8697 376.419 306.53784 375.90457 297.30453 374.5781L320.0 216.6Z" fill-rule="nonzero"/><path fill="#1a1a1a" d="M24.26875 94.76834L23.221874 94.76834L23.221874 88.04959Q22.83125 88.408966 22.20625 88.783966Q21.596874 89.14334 21.1125 89.315216L21.1125 88.29959Q21.9875 87.877716 22.64375 87.29959Q23.315624 86.70584 23.596874 86.14334L24.26875 86.14334L24.26875 94.76834ZM27.3 90.533966Q27.3 89.002716 27.6125 88.08084Q27.925 87.14334 28.534374 86.64334Q29.159374 86.14334 30.096874 86.14334Q30.784374 86.14334 31.3 86.42459Q31.83125 86.70584 32.175 87.23709Q32.51875 87.752716 32.70625 88.502716Q32.89375 89.252716 32.89375 90.533966Q32.89375 92.04959 32.58125 92.971466Q32.284374 93.89334 31.659374 94.408966Q31.05 94.908966 30.096874 94.908966Q28.8625 94.908966 28.14375 94.01834Q27.3 92.95584 27.3 90.533966ZM28.378124 90.533966Q28.378124 92.64334 28.878124 93.346466Q29.378124 94.04959 30.096874 94.04959Q30.83125 94.04959 31.315624 93.346466Q31.815624 92.64334 31.815624 90.533966Q31.815624 88.408966 31.315624 87.721466Q30.83125 87.01834 30.08125 87.01834Q29.3625 87.01834 28.925 87.627716Q28.378124 88.408966 28.378124 90.533966ZM38.26875 94.76834L37.221874 94.76834L37.221874 88.04959Q36.83125 88.408966 36.20625 88.783966Q35.596874 89.14334 35.1125 89.315216L35.1125 88.29959Q35.9875 87.877716 36.64375 87.29959Q37.315624 86.70584 37.596874 86.14334L38.26875 86.14334L38.26875 94.76834Z" fill-rule="nonzero"/><path fill="#9e9e9e" d="M25.846874 110.752716L25.846874 111.76834L20.159374 111.76834Q20.159374 111.39334 20.284374 111.033966Q20.503124 110.45584 20.971874 109.89334Q21.45625 109.33084 22.3625 108.596466Q23.76875 107.440216 24.253124 106.76834Q24.753124 106.096466 24.753124 105.502716Q24.753124 104.877716 24.3 104.45584Q23.846874 104.01834 23.128124 104.01834Q22.3625 104.01834 21.909374 104.471466Q21.45625 104.92459 21.440624 105.73709L20.3625 105.627716Q20.471874 104.408966 21.190624 103.783966Q21.925 103.14334 23.159374 103.14334Q24.39375 103.14334 25.1125 103.83084Q25.83125 104.51834 25.83125 105.533966Q25.83125 106.04959 25.6125 106.54959Q25.409374 107.033966 24.909374 107.596466Q24.425 108.14334 23.3 109.096466Q22.346874 109.89334 22.065624 110.190216Q21.8 110.471466 21.628124 110.752716L25.846874 110.752716ZM31.26875 111.76834L30.221874 111.76834L30.221874 105.04959Q29.83125 105.408966 29.20625 105.783966Q28.596874 106.14334 28.1125 106.315216L28.1125 105.29959Q28.9875 104.877716 29.64375 104.29959Q30.315624 103.70584 30.596874 103.14334L31.26875 103.14334L31.26875 111.76834ZM34.89375 111.76834L34.89375 110.565216L36.096874 110.565216L36.096874 111.76834L34.89375 111.76834ZM38.925 107.11209Q38.26875 106.86209 37.940624 106.42459Q37.628124 105.971466 37.628124 105.36209Q37.628124 104.42459 38.3 103.783966Q38.9875 103.14334 40.096874 103.14334Q41.221874 103.14334 41.909374 103.79959Q42.596874 104.45584 42.596874 105.39334Q42.596874 105.98709 42.284374 106.42459Q41.971874 106.86209 41.33125 107.11209Q42.128124 107.36209 42.534374 107.940216Q42.940624 108.51834 42.940624 109.315216Q42.940624 110.408966 42.159374 111.158966Q41.39375 111.908966 40.1125 111.908966Q38.846874 111.908966 38.065624 111.158966Q37.284374 110.408966 37.284374 109.283966Q37.284374 108.440216 37.70625 107.877716Q38.14375 107.315216 38.925 107.11209ZM38.70625 105.315216Q38.70625 105.92459 39.096874 106.315216Q39.503124 106.70584 40.128124 106.70584Q40.7375 106.70584 41.128124 106.33084Q41.51875 105.940216 41.51875 105.377716Q41.51875 104.79959 41.1125 104.408966Q40.70625 104.002716 40.1125 104.002716Q39.503124 104.002716 39.096874 104.39334Q38.70625 104.783966 38.70625 105.315216ZM38.378124 109.283966Q38.378124 109.73709 38.58125 110.158966Q38.8 110.58084 39.221874 110.815216Q39.64375 111.04959 40.128124 111.04959Q40.878124 111.04959 41.3625 110.565216Q41.8625 110.08084 41.8625 109.33084Q41.8625 108.565216 41.3625 108.065216Q40.8625 107.565216 40.096874 107.565216Q39.346874 107.565216 38.8625 108.065216Q38.378124 108.54959 38.378124 109.283966ZM44.503124 105.23709Q44.503124 104.315216 44.95625 103.67459Q45.425 103.033966 46.3 103.033966Q47.1125 103.033966 47.64375 103.61209Q48.175 104.190216 48.175 105.29959Q48.175 106.39334 47.628124 106.98709Q47.096874 107.565216 46.315624 107.565216Q45.534374 107.565216 45.01875 106.98709Q44.503124 106.408966 44.503124 105.23709ZM46.33125 103.752716Q45.940624 103.752716 45.675 104.096466Q45.425 104.440216 45.425 105.346466Q45.425 106.17459 45.675 106.51834Q45.940624 106.846466 46.33125 106.846466Q46.7375 106.846466 46.9875 106.502716Q47.253124 106.158966 47.253124 105.26834Q47.253124 104.42459 46.9875 104.096466Q46.721874 103.752716 46.33125 103.752716ZM46.33125 112.08084L51.034374 103.033966L51.89375 103.033966L47.20625 112.08084L46.33125 112.08084ZM50.05 109.752716Q50.05 108.83084 50.503124 108.190216Q50.971874 107.54959 51.8625 107.54959Q52.675 107.54959 53.20625 108.127716Q53.7375 108.690216 53.7375 109.815216Q53.7375 110.908966 53.190624 111.502716Q52.659374 112.08084 51.8625 112.08084Q51.096874 112.08084 50.565624 111.502716Q50.05 110.92459 50.05 109.752716ZM51.89375 108.26834Q51.4875 108.26834 51.221874 108.61209Q50.971874 108.95584 50.971874 109.86209Q50.971874 110.67459 51.2375 111.01834Q51.503124 111.36209 51.89375 111.36209Q52.284374 111.36209 52.55 111.01834Q52.815624 110.67459 52.815624 109.76834Q52.815624 108.940216 52.55 108.61209Q52.284374 108.26834 51.89375 108.26834Z" fill-rule="nonzero"/><path stroke="#757575" stroke-width="1.0" stroke-linecap="butt" d="M19.8 99.26834L154.4 99.26834L223.96924 99.26834" fill-rule="nonzero"/><path fill="#9e9e9e" d="M225.96924 99.26834C225.96924 98.16377 225.0738 97.26834 223.96924 97.26834C222.86467 97.26834 221.96924 98.16377 221.96924 99.26834C221.96924 100.37292 222.86467 101.26834 223.96924 101.26834C225.0738 101.26834 225.96924 100.37292 225.96924 99.26834" fill-rule="nonzero"/><path fill="#1a1a1a" d="M21.925 177.8409Q21.26875 177.5909 20.940624 177.1534Q20.628124 176.70027 20.628124 176.0909Q20.628124 175.1534 21.3 174.51277Q21.9875 173.87215 23.096874 173.87215Q24.221874 173.87215 24.909374 174.5284Q25.596874 175.18465 25.596874 176.12215Q25.596874 176.7159 25.284374 177.1534Q24.971874 177.5909 24.33125 177.8409Q25.128124 178.0909 25.534374 178.66902Q25.940624 179.24715 25.940624 180.04402Q25.940624 181.13777 25.159374 181.88777Q24.39375 182.63777 23.1125 182.63777Q21.846874 182.63777 21.065624 181.88777Q20.284374 181.13777 20.284374 180.01277Q20.284374 179.16902 20.70625 178.60652Q21.14375 178.04402 21.925 177.8409ZM21.70625 176.04402Q21.70625 176.6534 22.096874 177.04402Q22.503124 177.43465 23.128124 177.43465Q23.7375 177.43465 24.128124 177.05965Q24.51875 176.66902 24.51875 176.10652Q24.51875 175.5284 24.1125 175.13777Q23.70625 174.73152 23.1125 174.73152Q22.503124 174.73152 22.096874 175.12215Q21.70625 175.51277 21.70625 176.04402ZM21.378124 180.01277Q21.378124 180.4659 21.58125 180.88777Q21.8 181.30965 22.221874 181.54402Q22.64375 181.7784 23.128124 181.7784Q23.878124 181.7784 24.3625 181.29402Q24.8625 180.80965 24.8625 180.05965Q24.8625 179.29402 24.3625 178.79402Q23.8625 178.29402 23.096874 178.29402Q22.346874 178.29402 21.8625 178.79402Q21.378124 179.2784 21.378124 180.01277ZM27.3 180.23152L28.3625 180.0909Q28.534374 180.98152 28.971874 181.38777Q29.409374 181.7784 30.034374 181.7784Q30.784374 181.7784 31.3 181.26277Q31.815624 180.74715 31.815624 179.98152Q31.815624 179.26277 31.33125 178.79402Q30.8625 178.30965 30.128124 178.30965Q29.83125 178.30965 29.378124 178.43465L29.503124 177.49715Q29.6125 177.51277 29.675 177.51277Q30.346874 177.51277 30.878124 177.16902Q31.425 176.80965 31.425 176.07527Q31.425 175.49715 31.034374 175.12215Q30.64375 174.73152 30.01875 174.73152Q29.409374 174.73152 28.9875 175.12215Q28.58125 175.51277 28.471874 176.2784L27.409374 176.0909Q27.596874 175.04402 28.284374 174.4659Q28.971874 173.87215 29.9875 173.87215Q30.690624 173.87215 31.284374 174.18465Q31.878124 174.48152 32.190624 174.99715Q32.503124 175.51277 32.503124 176.10652Q32.503124 176.6534 32.20625 177.12215Q31.909374 177.57527 31.33125 177.8409Q32.08125 178.01277 32.503124 178.57527Q32.925 179.12215 32.925 179.9659Q32.925 181.0909 32.096874 181.87215Q31.284374 182.6534 30.034374 182.6534Q28.909374 182.6534 28.159374 181.98152Q27.409374 181.29402 27.3 180.23152Z" fill-rule="nonzero"/><path fill="#9e9e9e" d="M20.3 195.26277Q20.3 193.73152 20.6125 192.80965Q20.925 191.87215 21.534374 191.37215Q22.159374 190.87215 23.096874 190.87215Q23.784374 190.87215 24.3 191.1534Q24.83125 191.43465 25.175 191.9659Q25.51875 192.48152 25.70625 193.23152Q25.89375 193.98152 25.89375 195.26277Q25.89375 196.7784 25.58125 197.70027Q25.284374 198.62215 24.659374 199.13777Q24.05 199.63777 23.096874 199.63777Q21.8625 199.63777 21.14375 198.74715Q20.3 197.68465 20.3 195.26277ZM21.378124 195.26277Q21.378124 197.37215 21.878124 198.07527Q22.378124 198.7784 23.096874 198.7784Q23.83125 198.7784 24.315624 198.07527Q24.815624 197.37215 24.815624 195.26277Q24.815624 193.13777 24.315624 192.45027Q23.83125 191.74715 23.08125 191.74715Q22.3625 191.74715 21.925 192.35652Q21.378124 193.13777 21.378124 195.26277ZM27.89375 199.49715L27.89375 198.29402L29.096874 198.29402L29.096874 199.49715L27.89375 199.49715ZM34.26875 199.49715L33.221874 199.49715L33.221874 192.7784Q32.83125 193.13777 32.20625 193.51277Q31.596874 193.87215 31.1125 194.04402L31.1125 193.0284Q31.9875 192.60652 32.64375 192.0284Q33.315624 191.43465 33.596874 190.87215L34.26875 190.87215L34.26875 199.49715ZM37.503124 192.9659Q37.503124 192.04402 37.95625 191.4034Q38.425 190.76277 39.3 190.76277Q40.1125 190.76277 40.64375 191.3409Q41.175 191.91902 41.175 193.0284Q41.175 194.12215 40.628124 194.7159Q40.096874 195.29402 39.315624 195.29402Q38.534374 195.29402 38.01875 194.7159Q37.503124 194.13777 37.503124 192.9659ZM39.33125 191.48152Q38.940624 191.48152 38.675 191.82527Q38.425 192.16902 38.425 193.07527Q38.425 193.9034 38.675 194.24715Q38.940624 194.57527 39.33125 194.57527Q39.7375 194.57527 39.9875 194.23152Q40.253124 193.88777 40.253124 192.99715Q40.253124 192.1534 39.9875 191.82527Q39.721874 191.48152 39.33125 191.48152ZM39.33125 199.80965L44.034374 190.76277L44.89375 190.76277L40.20625 199.80965L39.33125 199.80965ZM43.05 197.48152Q43.05 196.55965 43.503124 195.91902Q43.971874 195.2784 44.8625 195.2784Q45.675 195.2784 46.20625 195.85652Q46.7375 196.41902 46.7375 197.54402Q46.7375 198.63777 46.190624 199.23152Q45.659374 199.80965 44.8625 199.80965Q44.096874 199.80965 43.565624 199.23152Q43.05 198.6534 43.05 197.48152ZM44.89375 195.99715Q44.4875 195.99715 44.221874 196.3409Q43.971874 196.68465 43.971874 197.5909Q43.971874 198.4034 44.2375 198.74715Q44.503124 199.0909 44.89375 199.0909Q45.284374 199.0909 45.55 198.74715Q45.815624 198.4034 45.815624 197.49715Q45.815624 196.66902 45.55 196.3409Q45.284374 195.99715 44.89375 195.99715Z" fill-rule="nonzero"/><path stroke="#757575" stroke-width="1.0" stroke-linecap="butt" d="M19.8 186.99715L154.4 186.99715L171.29796 186.99715" fill-rule="nonzero"/><path fill="#9e9e9e" d="M173.29796 186.99715C173.29796 185.89258 172.40254 184.99715 171.29796 184.99715C170.19339 184.99715 169.29796 185.89258 169.29796 186.99715C169.29796 188.10172 170.19339 188.99715 171.29796 188.99715C172.40254 188.99715 173.29796 188.10172 173.29796 186.99715" fill-rule="nonzero"/><path fill="#1a1a1a" d="M20.3625 224.73125L20.3625 223.71562L25.925 223.71562L25.925 224.54375Q25.1125 225.41875 24.3 226.87187Q23.503124 228.30937 23.065624 229.84062Q22.7375 230.91875 22.659374 232.2L21.565624 232.2Q21.58125 231.18437 21.95625 229.74687Q22.346874 228.30937 23.05 226.98125Q23.76875 225.65312 24.58125 224.73125L20.3625 224.73125ZM32.76875 225.71562L31.721874 225.79375Q31.58125 225.16875 31.33125 224.8875Q30.89375 224.43437 30.26875 224.43437Q29.76875 224.43437 29.378124 224.71562Q28.89375 225.09062 28.596874 225.79375Q28.315624 226.48125 28.3 227.7625Q28.675 227.18437 29.221874 226.90312Q29.784374 226.62187 30.39375 226.62187Q31.440624 226.62187 32.175 227.40312Q32.925 228.18437 32.925 229.40312Q32.925 230.21562 32.565624 230.91875Q32.221874 231.60625 31.6125 231.98125Q31.003124 232.34062 30.2375 232.34062Q28.909374 232.34062 28.08125 231.37187Q27.253124 230.40312 27.253124 228.18437Q27.253124 225.68437 28.175 224.55937Q28.971874 223.575 30.33125 223.575Q31.346874 223.575 31.9875 224.15312Q32.64375 224.71562 32.76875 225.71562ZM28.471874 229.41875Q28.471874 229.96562 28.690624 230.46562Q28.925 230.95 29.33125 231.21562Q29.753124 231.48125 30.221874 231.48125Q30.878124 231.48125 31.3625 230.95Q31.846874 230.40312 31.846874 229.48125Q31.846874 228.59062 31.3625 228.075Q30.89375 227.55937 30.175 227.55937Q29.45625 227.55937 28.95625 228.075Q28.471874 228.59062 28.471874 229.41875Z" fill-rule="nonzero"/><path fill="#9e9e9e" d="M24.26875 249.2L23.221874 249.2L23.221874 242.48125Q22.83125 242.84062 22.20625 243.21562Q21.596874 243.575 21.1125 243.74687L21.1125 242.73125Q21.9875 242.30937 22.64375 241.73125Q23.315624 241.1375 23.596874 240.575L24.26875 240.575L24.26875 249.2ZM27.3 246.95L28.409374 246.85625Q28.534374 247.66875 28.971874 248.075Q29.425 248.48125 30.065624 248.48125Q30.815624 248.48125 31.346874 247.90312Q31.878124 247.325 31.878124 246.3875Q31.878124 245.48125 31.3625 244.96562Q30.8625 244.43437 30.034374 244.43437Q29.534374 244.43437 29.1125 244.66875Q28.70625 244.90312 28.471874 245.2625L27.4875 245.1375L28.315624 240.73125L32.596874 240.73125L32.596874 241.73125L29.159374 241.73125L28.70625 244.04375Q29.471874 243.49687 30.315624 243.49687Q31.440624 243.49687 32.20625 244.27812Q32.9875 245.05937 32.9875 246.29375Q32.9875 247.45 32.315624 248.30937Q31.4875 249.34062 30.065624 249.34062Q28.89375 249.34062 28.14375 248.68437Q27.409374 248.02812 27.3 246.95ZM34.89375 249.2L34.89375 247.99687L36.096874 247.99687L36.096874 249.2L34.89375 249.2ZM40.675 249.2L40.675 247.1375L36.95625 247.1375L36.95625 246.16875L40.878124 240.60625L41.7375 240.60625L41.7375 246.16875L42.89375 246.16875L42.89375 247.1375L41.7375 247.1375L41.7375 249.2L40.675 249.2ZM40.675 246.16875L40.675 242.30937L37.9875 246.16875L40.675 246.16875ZM44.503124 242.66875Q44.503124 241.74687 44.95625 241.10625Q45.425 240.46562 46.3 240.46562Q47.1125 240.46562 47.64375 241.04375Q48.175 241.62187 48.175 242.73125Q48.175 243.825 47.628124 244.41875Q47.096874 244.99687 46.315624 244.99687Q45.534374 244.99687 45.01875 244.41875Q44.503124 243.84062 44.503124 242.66875ZM46.33125 241.18437Q45.940624 241.18437 45.675 241.52812Q45.425 241.87187 45.425 242.77812Q45.425 243.60625 45.675 243.95Q45.940624 244.27812 46.33125 244.27812Q46.7375 244.27812 46.9875 243.93437Q47.253124 243.59062 47.253124 242.7Q47.253124 241.85625 46.9875 241.52812Q46.721874 241.18437 46.33125 241.18437ZM46.33125 249.5125L51.034374 240.46562L51.89375 240.46562L47.20625 249.5125L46.33125 249.5125ZM50.05 247.18437Q50.05 246.2625 50.503124 245.62187Q50.971874 244.98125 51.8625 244.98125Q52.675 244.98125 53.20625 245.55937Q53.7375 246.12187 53.7375 247.24687Q53.7375 248.34062 53.190624 248.93437Q52.659374 249.5125 51.8625 249.5125Q51.096874 249.5125 50.565624 248.93437Q50.05 248.35625 50.05 247.18437ZM51.89375 245.7Q51.4875 245.7 51.221874 246.04375Q50.971874 246.3875 50.971874 247.29375Q50.971874 248.10625 51.2375 248.45Q51.503124 248.79375 51.89375 248.79375Q52.284374 248.79375 52.55 248.45Q52.815624 248.10625 52.815624 247.2Q52.815624 246.37187 52.55 246.04375Q52.284374 245.7 51.89375 245.7Z" fill-rule="nonzero"/><path stroke="#757575" stroke-width="1.0" stroke-linecap="butt" d="M19.8 236.7L154.4 236.7L174.67325 259.82916" fill-rule="nonzero"/><path fill="#9e9e9e" d="M176.67325 259.82916C176.67325 258.7246 175.77782 257.82916 174.67325 257.82916C173.56868 257.82916 172.67325 258.7246 172.67325 259.82916C172.67325 260.93375 173.56868 261.82916 174.67325 261.82916C175.77782 261.82916 176.67325 260.93375 176.67325 259.82916" fill-rule="nonzero"/><path fill="#1a1a1a" d="M20.3625 255.73126L20.3625 254.71564L25.925 254.71564L25.925 255.54376Q25.1125 256.41876 24.3 257.8719Q23.503124 259.3094 23.065624 260.84064Q22.7375 261.91876 22.659374 263.2L21.565624 263.2Q21.58125 262.1844 21.95625 260.7469Q22.346874 259.3094 23.05 257.98126Q23.76875 256.65314 24.58125 255.73126L20.3625 255.73126ZM27.3 260.95L28.409374 260.85626Q28.534374 261.66876 28.971874 262.075Q29.425 262.48126 30.065624 262.48126Q30.815624 262.48126 31.346874 261.90314Q31.878124 261.325 31.878124 260.3875Q31.878124 259.48126 31.3625 258.96564Q30.8625 258.4344 30.034374 258.4344Q29.534374 258.4344 29.1125 258.66876Q28.70625 258.90314 28.471874 259.2625L27.4875 259.1375L28.315624 254.73126L32.596874 254.73126L32.596874 255.73126L29.159374 255.73126L28.70625 258.04376Q29.471874 257.4969 30.315624 257.4969Q31.440624 257.4969 32.20625 258.27814Q32.9875 259.0594 32.9875 260.29376Q32.9875 261.45 32.315624 262.3094Q31.4875 263.34064 30.065624 263.34064Q28.89375 263.34064 28.14375 262.6844Q27.409374 262.02814 27.3 260.95Z" fill-rule="nonzero"/><path fill="#9e9e9e" d="M24.26875 280.2L23.221874 280.2L23.221874 273.48126Q22.83125 273.84064 22.20625 274.21564Q21.596874 274.575 21.1125 274.7469L21.1125 273.73126Q21.9875 273.3094 22.64375 272.73126Q23.315624 272.1375 23.596874 271.575L24.26875 271.575L24.26875 280.2ZM27.89375 280.2L27.89375 278.9969L29.096874 278.9969L29.096874 280.2L27.89375 280.2ZM31.925 275.54376Q31.26875 275.29376 30.940624 274.85626Q30.628124 274.40314 30.628124 273.79376Q30.628124 272.85626 31.3 272.21564Q31.9875 271.575 33.096874 271.575Q34.221874 271.575 34.909374 272.23126Q35.596874 272.8875 35.596874 273.825Q35.596874 274.41876 35.284374 274.85626Q34.971874 275.29376 34.33125 275.54376Q35.128124 275.79376 35.534374 276.3719Q35.940624 276.95 35.940624 277.7469Q35.940624 278.84064 35.159374 279.59064Q34.39375 280.34064 33.1125 280.34064Q31.846874 280.34064 31.065624 279.59064Q30.284374 278.84064 30.284374 277.71564Q30.284374 276.8719 30.70625 276.3094Q31.14375 275.7469 31.925 275.54376ZM31.70625 273.7469Q31.70625 274.35626 32.096874 274.7469Q32.503124 275.1375 33.128124 275.1375Q33.7375 275.1375 34.128124 274.7625Q34.51875 274.3719 34.51875 273.8094Q34.51875 273.23126 34.1125 272.84064Q33.70625 272.4344 33.1125 272.4344Q32.503124 272.4344 32.096874 272.825Q31.70625 273.21564 31.70625 273.7469ZM31.378124 277.71564Q31.378124 278.16876 31.58125 278.59064Q31.8 279.0125 32.221874 279.2469Q32.64375 279.48126 33.128124 279.48126Q33.878124 279.48126 34.3625 278.9969Q34.8625 278.5125 34.8625 277.7625Q34.8625 276.9969 34.3625 276.4969Q33.8625 275.9969 33.096874 275.9969Q32.346874 275.9969 31.8625 276.4969Q31.378124 276.98126 31.378124 277.71564ZM37.503124 273.66876Q37.503124 272.7469 37.95625 272.10626Q38.425 271.46564 39.3 271.46564Q40.1125 271.46564 40.64375 272.04376Q41.175 272.6219 41.175 273.73126Q41.175 274.825 40.628124 275.41876Q40.096874 275.9969 39.315624 275.9969Q38.534374 275.9969 38.01875 275.41876Q37.503124 274.84064 37.503124 273.66876ZM39.33125 272.1844Q38.940624 272.1844 38.675 272.52814Q38.425 272.8719 38.425 273.77814Q38.425 274.60626 38.675 274.95Q38.940624 275.27814 39.33125 275.27814Q39.7375 275.27814 39.9875 274.9344Q40.253124 274.59064 40.253124 273.7Q40.253124 272.85626 39.9875 272.52814Q39.721874 272.1844 39.33125 272.1844ZM39.33125 280.5125L44.034374 271.46564L44.89375 271.46564L40.20625 280.5125L39.33125 280.5125ZM43.05 278.1844Q43.05 277.2625 43.503124 276.6219Q43.971874 275.98126 44.8625 275.98126Q45.675 275.98126 46.20625 276.5594Q46.7375 277.1219 46.7375 278.2469Q46.7375 279.34064 46.190624 279.9344Q45.659374 280.5125 44.8625 280.5125Q44.096874 280.5125 43.565624 279.9344Q43.05 279.35626 43.05 278.1844ZM44.89375 276.7Q44.4875 276.7 44.221874 277.04376Q43.971874 277.3875 43.971874 278.29376Q43.971874 279.10626 44.2375 279.45Q44.503124 279.79376 44.89375 279.79376Q45.284374 279.79376 45.55 279.45Q45.815624 279.10626 45.815624 278.2Q45.815624 277.3719 45.55 277.04376Q45.284374 276.7 44.89375 276.7Z" fill-rule="nonzero"/><path stroke="#757575" stroke-width="1.0" stroke-linecap="butt" d="M19.8 267.7L154.4 267.7L217.37672 328.21133" fill-rule="nonzero"/><path fill="#9e9e9e" d="M219.37672 328.21133C219.37672 327.10675 218.4813 326.21133 217.37672 326.21133C216.27216 326.21133 215.37672 327.10675 215.37672 328.21133C215.37672 329.3159 216.27216 330.21133 217.37672 330.21133C218.4813 330.21133 219.37672 329.3159 219.37672 328.21133" fill-rule="nonzero"/><path fill="#1a1a1a" d="M20.3 291.95L21.409374 291.85626Q21.534374 292.66876 21.971874 293.075Q22.425 293.48126 23.065624 293.48126Q23.815624 293.48126 24.346874 292.90314Q24.878124 292.325 24.878124 291.3875Q24.878124 290.48126 24.3625 289.96564Q23.8625 289.4344 23.034374 289.4344Q22.534374 289.4344 22.1125 289.66876Q21.70625 289.90314 21.471874 290.2625L20.4875 290.1375L21.315624 285.73126L25.596874 285.73126L25.596874 286.73126L22.159374 286.73126L21.70625 289.04376Q22.471874 288.4969 23.315624 288.4969Q24.440624 288.4969 25.20625 289.27814Q25.9875 290.0594 25.9875 291.29376Q25.9875 292.45 25.315624 293.3094Q24.4875 294.34064 23.065624 294.34064Q21.89375 294.34064 21.14375 293.6844Q20.409374 293.02814 20.3 291.95ZM31.26875 294.2L30.221874 294.2L30.221874 287.48126Q29.83125 287.84064 29.20625 288.21564Q28.596874 288.575 28.1125 288.7469L28.1125 287.73126Q28.9875 287.3094 29.64375 286.73126Q30.315624 286.1375 30.596874 285.575L31.26875 285.575L31.26875 294.2Z" fill-rule="nonzero"/><path fill="#9e9e9e" d="M24.26875 311.2L23.221874 311.2L23.221874 304.48126Q22.83125 304.84064 22.20625 305.21564Q21.596874 305.575 21.1125 305.7469L21.1125 304.73126Q21.9875 304.3094 22.64375 303.73126Q23.315624 303.1375 23.596874 302.575L24.26875 302.575L24.26875 311.2ZM27.89375 311.2L27.89375 309.9969L29.096874 309.9969L29.096874 311.2L27.89375 311.2ZM35.76875 304.71564L34.721874 304.79376Q34.58125 304.16876 34.33125 303.8875Q33.89375 303.4344 33.26875 303.4344Q32.76875 303.4344 32.378124 303.71564Q31.89375 304.09064 31.596874 304.79376Q31.315624 305.48126 31.3 306.7625Q31.675 306.1844 32.221874 305.90314Q32.784374 305.6219 33.39375 305.6219Q34.440624 305.6219 35.175 306.40314Q35.925 307.1844 35.925 308.40314Q35.925 309.21564 35.565624 309.91876Q35.221874 310.60626 34.6125 310.98126Q34.003124 311.34064 33.2375 311.34064Q31.909374 311.34064 31.08125 310.3719Q30.253124 309.40314 30.253124 307.1844Q30.253124 304.6844 31.175 303.5594Q31.971874 302.575 33.33125 302.575Q34.346874 302.575 34.9875 303.15314Q35.64375 303.71564 35.76875 304.71564ZM31.471874 308.41876Q31.471874 308.96564 31.690624 309.46564Q31.925 309.95 32.33125 310.21564Q32.753124 310.48126 33.221874 310.48126Q33.878124 310.48126 34.3625 309.95Q34.846874 309.40314 34.846874 308.48126Q34.846874 307.59064 34.3625 307.075Q33.89375 306.5594 33.175 306.5594Q32.45625 306.5594 31.95625 307.075Q31.471874 307.59064 31.471874 308.41876ZM37.503124 304.66876Q37.503124 303.7469 37.95625 303.10626Q38.425 302.46564 39.3 302.46564Q40.1125 302.46564 40.64375 303.04376Q41.175 303.6219 41.175 304.73126Q41.175 305.825 40.628124 306.41876Q40.096874 306.9969 39.315624 306.9969Q38.534374 306.9969 38.01875 306.41876Q37.503124 305.84064 37.503124 304.66876ZM39.33125 303.1844Q38.940624 303.1844 38.675 303.52814Q38.425 303.8719 38.425 304.77814Q38.425 305.60626 38.675 305.95Q38.940624 306.27814 39.33125 306.27814Q39.7375 306.27814 39.9875 305.9344Q40.253124 305.59064 40.253124 304.7Q40.253124 303.85626 39.9875 303.52814Q39.721874 303.1844 39.33125 303.1844ZM39.33125 311.5125L44.034374 302.46564L44.89375 302.46564L40.20625 311.5125L39.33125 311.5125ZM43.05 309.1844Q43.05 308.2625 43.503124 307.6219Q43.971874 306.98126 44.8625 306.98126Q45.675 306.98126 46.20625 307.5594Q46.7375 308.1219 46.7375 309.2469Q46.7375 310.34064 46.190624 310.9344Q45.659374 311.5125 44.8625 311.5125Q44.096874 311.5125 43.565624 310.9344Q43.05 310.35626 43.05 309.1844ZM44.89375 307.7Q44.4875 307.7 44.221874 308.04376Q43.971874 308.3875 43.971874 309.29376Q43.971874 310.10626 44.2375 310.45Q44.503124 310.79376 44.89375 310.79376Q45.284374 310.79376 45.55 310.45Q45.815624 310.10626 45.815624 309.2Q45.815624 308.3719 45.55 308.04376Q45.284374 307.7 44.89375 307.7Z" fill-rule="nonzero"/><path stroke="#757575" stroke-width="1.0" stroke-linecap="butt" d="M19.8 298.7L154.4 298.7L229.65625 338.36465" fill-rule="nonzero"/><path fill="#9e9e9e" d="M231.65625 338.36465C231.65625 337.2601 230.76082 336.36465 229.65625 336.36465C228.55168 336.36465 227.65625 337.2601 227.65625 338.36465C227.65625 339.46924 228.55168 340.36465 229.65625 340.36465C230.76082 340.36465 231.65625 339.46924 231.65625 338.36465" fill-rule="nonzero"/><path fill="#1a1a1a" d="M20.3 322.95L21.409374 322.85626Q21.534374 323.66876 21.971874 324.075Q22.425 324.48126 23.065624 324.48126Q23.815624 324.48126 24.346874 323.90314Q24.878124 323.325 24.878124 322.3875Q24.878124 321.48126 24.3625 320.96564Q23.8625 320.4344 23.034374 320.4344Q22.534374 320.4344 22.1125 320.66876Q21.70625 320.90314 21.471874 321.2625L20.4875 321.1375L21.315624 316.73126L25.596874 316.73126L25.596874 317.73126L22.159374 317.73126L21.70625 320.04376Q22.471874 319.4969 23.315624 319.4969Q24.440624 319.4969 25.20625 320.27814Q25.9875 321.0594 25.9875 322.29376Q25.9875 323.45 25.315624 324.3094Q24.4875 325.34064 23.065624 325.34064Q21.89375 325.34064 21.14375 324.6844Q20.409374 324.02814 20.3 322.95ZM27.3 320.96564Q27.3 319.4344 27.6125 318.5125Q27.925 317.575 28.534374 317.075Q29.159374 316.575 30.096874 316.575Q30.784374 316.575 31.3 316.85626Q31.83125 317.1375 32.175 317.66876Q32.51875 318.1844 32.70625 318.9344Q32.89375 319.6844 32.89375 320.96564Q32.89375 322.48126 32.58125 323.40314Q32.284374 324.325 31.659374 324.84064Q31.05 325.34064 30.096874 325.34064Q28.8625 325.34064 28.14375 324.45Q27.3 323.3875 27.3 320.96564ZM28.378124 320.96564Q28.378124 323.075 28.878124 323.77814Q29.378124 324.48126 30.096874 324.48126Q30.83125 324.48126 31.315624 323.77814Q31.815624 323.075 31.815624 320.96564Q31.815624 318.84064 31.315624 318.15314Q30.83125 317.45 30.08125 317.45Q29.3625 317.45 28.925 318.0594Q28.378124 318.84064 28.378124 320.96564Z" fill-rule="nonzero"/><path fill="#9e9e9e" d="M20.3625 334.73126L20.3625 333.71564L25.925 333.71564L25.925 334.54376Q25.1125 335.41876 24.3 336.8719Q23.503124 338.3094 23.065624 339.84064Q22.7375 340.91876 22.659374 342.2L21.565624 342.2Q21.58125 341.1844 21.95625 339.7469Q22.346874 338.3094 23.05 336.98126Q23.76875 335.65314 24.58125 334.73126L20.3625 334.73126ZM27.89375 342.2L27.89375 340.9969L29.096874 340.9969L29.096874 342.2L27.89375 342.2ZM34.26875 342.2L33.221874 342.2L33.221874 335.48126Q32.83125 335.84064 32.20625 336.21564Q31.596874 336.575 31.1125 336.7469L31.1125 335.73126Q31.9875 335.3094 32.64375 334.73126Q33.315624 334.1375 33.596874 333.575L34.26875 333.575L34.26875 342.2ZM37.503124 335.66876Q37.503124 334.7469 37.95625 334.10626Q38.425 333.46564 39.3 333.46564Q40.1125 333.46564 40.64375 334.04376Q41.175 334.6219 41.175 335.73126Q41.175 336.825 40.628124 337.41876Q40.096874 337.9969 39.315624 337.9969Q38.534374 337.9969 38.01875 337.41876Q37.503124 336.84064 37.503124 335.66876ZM39.33125 334.1844Q38.940624 334.1844 38.675 334.52814Q38.425 334.8719 38.425 335.77814Q38.425 336.60626 38.675 336.95Q38.940624 337.27814 39.33125 337.27814Q39.7375 337.27814 39.9875 336.9344Q40.253124 336.59064 40.253124 335.7Q40.253124 334.85626 39.9875 334.52814Q39.721874 334.1844 39.33125 334.1844ZM39.33125 342.5125L44.034374 333.46564L44.89375 333.46564L40.20625 342.5125L39.33125 342.5125ZM43.05 340.1844Q43.05 339.2625 43.503124 338.6219Q43.971874 337.98126 44.8625 337.98126Q45.675 337.98126 46.20625 338.5594Q46.7375 339.1219 46.7375 340.2469Q46.7375 341.34064 46.190624 341.9344Q45.659374 342.5125 44.8625 342.5125Q44.096874 342.5125 43.565624 341.9344Q43.05 341.35626 43.05 340.1844ZM44.89375 338.7Q44.4875 338.7 44.221874 339.04376Q43.971874 339.3875 43.971874 340.29376Q43.971874 341.10626 44.2375 341.45Q44.503124 341.79376 44.89375 341.79376Q45.284374 341.79376 45.55 341.45Q45.815624 341.10626 45.815624 340.2Q45.815624 339.3719 45.55 339.04376Q45.284374 338.7 44.89375 338.7Z" fill-rule="nonzero"/><path stroke="#757575" stroke-width="1.0" stroke-linecap="butt" d="M19.8 329.7L154.4 329.7L265.81192 358.20605" fill-rule="nonzero"/><path fill="#9e9e9e" d="M267.81192 358.20605C267.81192 357.1015 266.9165 356.20605 265.81192 356.20605C264.70734 356.20605 263.81192 357.1015 263.81192 358.20605C263.81192 359.31064 264.70734 360.20605 265.81192 360.20605C266.9165 360.20605 267.81192 359.31064 267.81192 358.20605" fill-rule="nonzero"/><path fill="#1a1a1a" d="M23.675 356.2L23.675 354.1375L19.95625 354.1375L19.95625 353.16876L23.878124 347.60626L24.7375 347.60626L24.7375 353.16876L25.89375 353.16876L25.89375 354.1375L24.7375 354.1375L24.7375 356.2L23.675 356.2ZM23.675 353.16876L23.675 349.3094L20.9875 353.16876L23.675 353.16876ZM27.45625 354.21564L28.471874 354.1219Q28.596874 354.84064 28.95625 355.16876Q29.33125 355.48126 29.89375 355.48126Q30.378124 355.48126 30.7375 355.2625Q31.1125 355.02814 31.346874 354.66876Q31.58125 354.29376 31.7375 353.66876Q31.89375 353.02814 31.89375 352.3719Q31.89375 352.29376 31.89375 352.15314Q31.58125 352.65314 31.034374 352.98126Q30.4875 353.29376 29.846874 353.29376Q28.76875 353.29376 28.034374 352.52814Q27.3 351.7469 27.3 350.48126Q27.3 349.16876 28.065624 348.3719Q28.846874 347.575 30.003124 347.575Q30.83125 347.575 31.51875 348.02814Q32.221874 348.48126 32.58125 349.325Q32.940624 350.15314 32.940624 351.73126Q32.940624 353.3719 32.58125 354.35626Q32.2375 355.325 31.51875 355.84064Q30.815624 356.34064 29.878124 356.34064Q28.8625 356.34064 28.221874 355.79376Q27.58125 355.23126 27.45625 354.21564ZM31.76875 350.41876Q31.76875 349.5125 31.284374 348.98126Q30.815624 348.45 30.128124 348.45Q29.425 348.45 28.89375 349.02814Q28.378124 349.59064 28.378124 350.5125Q28.378124 351.325 28.878124 351.84064Q29.378124 352.35626 30.096874 352.35626Q30.83125 352.35626 31.3 351.84064Q31.76875 351.325 31.76875 350.41876Z" fill-rule="nonzero"/><path fill="#9e9e9e" d="M25.846874 372.1844L25.846874 373.2L20.159374 373.2Q20.159374 372.825 20.284374 372.46564Q20.503124 371.8875 20.971874 371.325Q21.45625 370.7625 22.3625 370.02814Q23.76875 368.8719 24.253124 368.2Q24.753124 367.52814 24.753124 366.9344Q24.753124 366.3094 24.3 365.8875Q23.846874 365.45 23.128124 365.45Q22.3625 365.45 21.909374 365.90314Q21.45625 366.35626 21.440624 367.16876L20.3625 367.0594Q20.471874 365.84064 21.190624 365.21564Q21.925 364.575 23.159374 364.575Q24.39375 364.575 25.1125 365.2625Q25.83125 365.95 25.83125 366.96564Q25.83125 367.48126 25.6125 367.98126Q25.409374 368.46564 24.909374 369.02814Q24.425 369.575 23.3 370.52814Q22.346874 371.325 22.065624 371.6219Q21.8 371.90314 21.628124 372.1844L25.846874 372.1844ZM27.89375 373.2L27.89375 371.9969L29.096874 371.9969L29.096874 373.2L27.89375 373.2ZM31.925 368.54376Q31.26875 368.29376 30.940624 367.85626Q30.628124 367.40314 30.628124 366.79376Q30.628124 365.85626 31.3 365.21564Q31.9875 364.575 33.096874 364.575Q34.221874 364.575 34.909374 365.23126Q35.596874 365.8875 35.596874 366.825Q35.596874 367.41876 35.284374 367.85626Q34.971874 368.29376 34.33125 368.54376Q35.128124 368.79376 35.534374 369.3719Q35.940624 369.95 35.940624 370.7469Q35.940624 371.84064 35.159374 372.59064Q34.39375 373.34064 33.1125 373.34064Q31.846874 373.34064 31.065624 372.59064Q30.284374 371.84064 30.284374 370.71564Q30.284374 369.8719 30.70625 369.3094Q31.14375 368.7469 31.925 368.54376ZM31.70625 366.7469Q31.70625 367.35626 32.096874 367.7469Q32.503124 368.1375 33.128124 368.1375Q33.7375 368.1375 34.128124 367.7625Q34.51875 367.3719 34.51875 366.8094Q34.51875 366.23126 34.1125 365.84064Q33.70625 365.4344 33.1125 365.4344Q32.503124 365.4344 32.096874 365.825Q31.70625 366.21564 31.70625 366.7469ZM31.378124 370.71564Q31.378124 371.16876 31.58125 371.59064Q31.8 372.0125 32.221874 372.2469Q32.64375 372.48126 33.128124 372.48126Q33.878124 372.48126 34.3625 371.9969Q34.8625 371.5125 34.8625 370.7625Q34.8625 369.9969 34.3625 369.4969Q33.8625 368.9969 33.096874 368.9969Q32.346874 368.9969 31.8625 369.4969Q31.378124 369.98126 31.378124 370.71564ZM37.503124 366.66876Q37.503124 365.7469 37.95625 365.10626Q38.425 364.46564 39.3 364.46564Q40.1125 364.46564 40.64375 365.04376Q41.175 365.6219 41.175 366.73126Q41.175 367.825 40.628124 368.41876Q40.096874 368.9969 39.315624 368.9969Q38.534374 368.9969 38.01875 368.41876Q37.503124 367.84064 37.503124 366.66876ZM39.33125 365.1844Q38.940624 365.1844 38.675 365.52814Q38.425 365.8719 38.425 366.77814Q38.425 367.60626 38.675 367.95Q38.940624 368.27814 39.33125 368.27814Q39.7375 368.27814 39.9875 367.9344Q40.253124 367.59064 40.253124 366.7Q40.253124 365.85626 39.9875 365.52814Q39.721874 365.1844 39.33125 365.1844ZM39.33125 373.5125L44.034374 364.46564L44.89375 364.46564L40.20625 373.5125L39.33125 373.5125ZM43.05 371.1844Q43.05 370.2625 43.503124 369.6219Q43.971874 368.98126 44.8625 368.98126Q45.675 368.98126 46.20625 369.5594Q46.7375 370.1219 46.7375 371.2469Q46.7375 372.34064 46.190624 372.9344Q45.659374 373.5125 44.8625 373.5125Q44.096874 373.5125 43.565624 372.9344Q43.05 372.35626 43.05 371.1844ZM44.89375 369.7Q44.4875 369.7 44.221874 370.04376Q43.971874 370.3875 43.971874 371.29376Q43.971874 372.10626 44.2375 372.45Q44.503124 372.79376 44.89375 372.79376Q45.284374 372.79376 45.55 372.45Q45.815624 372.10626 45.815624 371.2Q45.815624 370.3719 45.55 370.04376Q45.284374 369.7 44.89375 369.7Z" fill-rule="nonzero"/><path stroke="#757575" stroke-width="1.0" stroke-linecap="butt" d="M19.8 360.7L154.4 360.7L311.65424 367.99014" fill-rule="nonzero"/><path fill="#9e9e9e" d="M313.65424 367.99014C313.65424 366.88556 312.75882 365.99014 311.65424 365.99014C310.54968 365.99014 309.65424 366.88556 309.65424 367.99014C309.65424 369.0947 310.54968 369.99014 311.65424 369.99014C312.75882 369.99014 313.65424 369.0947 313.65424 367.99014" fill-rule="nonzero"/><path fill="#1a1a1a" d="M612.2469 66.984375L612.2469 68.0L606.5594 68.0Q606.5594 67.625 606.6844 67.265625Q606.90314 66.6875 607.3719 66.125Q607.85626 65.5625 608.7625 64.828125Q610.16876 63.671875 610.65314 63.0Q611.15314 62.328125 611.15314 61.734375Q611.15314 61.109375 610.7 60.6875Q610.2469 60.25 609.52814 60.25Q608.7625 60.25 608.3094 60.703125Q607.85626 61.15625 607.84064 61.96875L606.7625 61.859375Q606.8719 60.640625 607.59064 60.015625Q608.325 59.375 609.5594 59.375Q610.79376 59.375 611.5125 60.0625Q612.23126 60.75 612.23126 61.765625Q612.23126 62.28125 612.0125 62.78125Q611.8094 63.265625 611.3094 63.828125Q610.825 64.375 609.7 65.328125Q608.7469 66.125 608.46564 66.421875Q608.2 66.703125 608.02814 66.984375L612.2469 66.984375ZM615.325 63.34375Q614.66876 63.09375 614.34064 62.65625Q614.02814 62.203125 614.02814 61.59375Q614.02814 60.65625 614.7 60.015625Q615.3875 59.375 616.4969 59.375Q617.6219 59.375 618.3094 60.03125Q618.9969 60.6875 618.9969 61.625Q618.9969 62.21875 618.6844 62.65625Q618.3719 63.09375 617.73126 63.34375Q618.52814 63.59375 618.9344 64.171875Q619.34064 64.75 619.34064 65.546875Q619.34064 66.640625 618.5594 67.390625Q617.79376 68.140625 616.5125 68.140625Q615.2469 68.140625 614.46564 67.390625Q613.6844 66.640625 613.6844 65.515625Q613.6844 64.671875 614.10626 64.109375Q614.54376 63.546875 615.325 63.34375ZM615.10626 61.546875Q615.10626 62.15625 615.4969 62.546875Q615.90314 62.9375 616.52814 62.9375Q617.1375 62.9375 617.52814 62.5625Q617.91876 62.171875 617.91876 61.609375Q617.91876 61.03125 617.5125 60.640625Q617.10626 60.234375 616.5125 60.234375Q615.90314 60.234375 615.4969 60.625Q615.10626 61.015625 615.10626 61.546875ZM614.77814 65.515625Q614.77814 65.96875 614.98126 66.390625Q615.2 66.8125 615.6219 67.046875Q616.04376 67.28125 616.52814 67.28125Q617.27814 67.28125 617.7625 66.796875Q618.2625 66.3125 618.2625 65.5625Q618.2625 64.796875 617.7625 64.296875Q617.2625 63.796875 616.4969 63.796875Q615.7469 63.796875 615.2625 64.296875Q614.77814 64.78125 614.77814 65.515625Z" fill-rule="nonzero"/><path fill="#9e9e9e" d="M596.075 85.0L596.075 82.9375L592.35626 82.9375L592.35626 81.96875L596.27814 76.40625L597.1375 76.40625L597.1375 81.96875L598.29376 81.96875L598.29376 82.9375L597.1375 82.9375L597.1375 85.0L596.075 85.0ZM596.075 81.96875L596.075 78.109375L593.3875 81.96875L596.075 81.96875ZM600.29376 85.0L600.29376 83.796875L601.4969 83.796875L601.4969 85.0L600.29376 85.0ZM606.66876 85.0L605.6219 85.0L605.6219 78.28125Q605.23126 78.640625 604.60626 79.015625Q603.9969 79.375 603.5125 79.546875L603.5125 78.53125Q604.3875 78.109375 605.04376 77.53125Q605.71564 76.9375 605.9969 76.375L606.66876 76.375L606.66876 85.0ZM609.90314 78.46875Q609.90314 77.546875 610.35626 76.90625Q610.825 76.265625 611.7 76.265625Q612.5125 76.265625 613.04376 76.84375Q613.575 77.421875 613.575 78.53125Q613.575 79.625 613.02814 80.21875Q612.4969 80.796875 611.71564 80.796875Q610.9344 80.796875 610.41876 80.21875Q609.90314 79.640625 609.90314 78.46875ZM611.73126 76.984375Q611.34064 76.984375 611.075 77.328125Q610.825 77.671875 610.825 78.578125Q610.825 79.40625 611.075 79.75Q611.34064 80.078125 611.73126 80.078125Q612.1375 80.078125 612.3875 79.734375Q612.65314 79.390625 612.65314 78.5Q612.65314 77.65625 612.3875 77.328125Q612.1219 76.984375 611.73126 76.984375ZM611.73126 85.3125L616.4344 76.265625L617.29376 76.265625L612.60626 85.3125L611.73126 85.3125ZM615.45 82.984375Q615.45 82.0625 615.90314 81.421875Q616.3719 80.78125 617.2625 80.78125Q618.075 80.78125 618.60626 81.359375Q619.1375 81.921875 619.1375 83.046875Q619.1375 84.140625 618.59064 84.734375Q618.0594 85.3125 617.2625 85.3125Q616.4969 85.3125 615.96564 84.734375Q615.45 84.15625 615.45 82.984375ZM617.29376 81.5Q616.8875 81.5 616.6219 81.84375Q616.3719 82.1875 616.3719 83.09375Q616.3719 83.90625 616.6375 84.25Q616.90314 84.59375 617.29376 84.59375Q617.6844 84.59375 617.95 84.25Q618.21564 83.90625 618.21564 83.0Q618.21564 82.171875 617.95 81.84375Q617.6844 81.5 617.29376 81.5Z" fill-rule="nonzero"/><path stroke="#757575" stroke-width="1.0" stroke-linecap="butt" d="M620.2 72.5L485.6 72.5L356.8234 69.51954" fill-rule="nonzero"/><path fill="#9e9e9e" d="M358.8234 69.51954C358.8234 68.41497 357.92798 67.51954 356.8234 67.51954C355.71884 67.51954 354.8234 68.41497 354.8234 69.51954C354.8234 70.62411 355.71884 71.51954 356.8234 71.51954C357.92798 71.51954 358.8234 70.62411 358.8234 69.51954" fill-rule="nonzero"/><path fill="#1a1a1a" d="M606.7 220.64221L607.7625 220.50159Q607.9344 221.39221 608.3719 221.79846Q608.8094 222.18909 609.4344 222.18909Q610.1844 222.18909 610.7 221.67346Q611.21564 221.15784 611.21564 220.39221Q611.21564 219.67346 610.73126 219.20471Q610.2625 218.72034 609.52814 218.72034Q609.23126 218.72034 608.77814 218.84534L608.90314 217.90784Q609.0125 217.92346 609.075 217.92346Q609.7469 217.92346 610.27814 217.57971Q610.825 217.22034 610.825 216.48596Q610.825 215.90784 610.4344 215.53284Q610.04376 215.14221 609.41876 215.14221Q608.8094 215.14221 608.3875 215.53284Q607.98126 215.92346 607.8719 216.68909L606.8094 216.50159Q606.9969 215.45471 607.6844 214.87659Q608.3719 214.28284 609.3875 214.28284Q610.09064 214.28284 610.6844 214.59534Q611.27814 214.89221 611.59064 215.40784Q611.90314 215.92346 611.90314 216.51721Q611.90314 217.06409 611.60626 217.53284Q611.3094 217.98596 610.73126 218.25159Q611.48126 218.42346 611.90314 218.98596Q612.325 219.53284 612.325 220.37659Q612.325 221.50159 611.4969 222.28284Q610.6844 223.06409 609.4344 223.06409Q608.3094 223.06409 607.5594 222.39221Q606.8094 221.70471 606.7 220.64221ZM619.16876 216.42346L618.1219 216.50159Q617.98126 215.87659 617.73126 215.59534Q617.29376 215.14221 616.66876 215.14221Q616.16876 215.14221 615.77814 215.42346Q615.29376 215.79846 614.9969 216.50159Q614.71564 217.18909 614.7 218.47034Q615.075 217.89221 615.6219 217.61096Q616.1844 217.32971 616.79376 217.32971Q617.84064 217.32971 618.575 218.11096Q619.325 218.89221 619.325 220.11096Q619.325 220.92346 618.96564 221.62659Q618.6219 222.31409 618.0125 222.68909Q617.40314 223.04846 616.6375 223.04846Q615.3094 223.04846 614.48126 222.07971Q613.65314 221.11096 613.65314 218.89221Q613.65314 216.39221 614.575 215.26721Q615.3719 214.28284 616.73126 214.28284Q617.7469 214.28284 618.3875 214.86096Q619.04376 215.42346 619.16876 216.42346ZM614.8719 220.12659Q614.8719 220.67346 615.09064 221.17346Q615.325 221.65784 615.73126 221.92346Q616.15314 222.18909 616.6219 222.18909Q617.27814 222.18909 617.7625 221.65784Q618.2469 221.11096 618.2469 220.18909Q618.2469 219.29846 617.7625 218.78284Q617.29376 218.26721 616.575 218.26721Q615.85626 218.26721 615.35626 218.78284Q614.8719 219.29846 614.8719 220.12659Z" fill-rule="nonzero"/><path fill="#9e9e9e" d="M585.7 237.64221L586.7625 237.50159Q586.9344 238.39221 587.3719 238.79846Q587.8094 239.18909 588.4344 239.18909Q589.1844 239.18909 589.7 238.67346Q590.21564 238.15784 590.21564 237.39221Q590.21564 236.67346 589.73126 236.20471Q589.2625 235.72034 588.52814 235.72034Q588.23126 235.72034 587.77814 235.84534L587.90314 234.90784Q588.0125 234.92346 588.075 234.92346Q588.7469 234.92346 589.27814 234.57971Q589.825 234.22034 589.825 233.48596Q589.825 232.90784 589.4344 232.53284Q589.04376 232.14221 588.41876 232.14221Q587.8094 232.14221 587.3875 232.53284Q586.98126 232.92346 586.8719 233.68909L585.8094 233.50159Q585.9969 232.45471 586.6844 231.87659Q587.3719 231.28284 588.3875 231.28284Q589.09064 231.28284 589.6844 231.59534Q590.27814 231.89221 590.59064 232.40784Q590.90314 232.92346 590.90314 233.51721Q590.90314 234.06409 590.60626 234.53284Q590.3094 234.98596 589.73126 235.25159Q590.48126 235.42346 590.90314 235.98596Q591.325 236.53284 591.325 237.37659Q591.325 238.50159 590.4969 239.28284Q589.6844 240.06409 588.4344 240.06409Q587.3094 240.06409 586.5594 239.39221Q585.8094 238.70471 585.7 237.64221ZM592.7625 232.43909L592.7625 231.42346L598.325 231.42346L598.325 232.25159Q597.5125 233.12659 596.7 234.57971Q595.90314 236.01721 595.46564 237.54846Q595.1375 238.62659 595.0594 239.90784L593.96564 239.90784Q593.98126 238.89221 594.35626 237.45471Q594.7469 236.01721 595.45 234.68909Q596.16876 233.36096 596.98126 232.43909L592.7625 232.43909ZM600.29376 239.90784L600.29376 238.70471L601.4969 238.70471L601.4969 239.90784L600.29376 239.90784ZM608.16876 233.42346L607.1219 233.50159Q606.98126 232.87659 606.73126 232.59534Q606.29376 232.14221 605.66876 232.14221Q605.16876 232.14221 604.77814 232.42346Q604.29376 232.79846 603.9969 233.50159Q603.71564 234.18909 603.7 235.47034Q604.075 234.89221 604.6219 234.61096Q605.1844 234.32971 605.79376 234.32971Q606.84064 234.32971 607.575 235.11096Q608.325 235.89221 608.325 237.11096Q608.325 237.92346 607.96564 238.62659Q607.6219 239.31409 607.0125 239.68909Q606.40314 240.04846 605.6375 240.04846Q604.3094 240.04846 603.48126 239.07971Q602.65314 238.11096 602.65314 235.89221Q602.65314 233.39221 603.575 232.26721Q604.3719 231.28284 605.73126 231.28284Q606.7469 231.28284 607.3875 231.86096Q608.04376 232.42346 608.16876 233.42346ZM603.8719 237.12659Q603.8719 237.67346 604.09064 238.17346Q604.325 238.65784 604.73126 238.92346Q605.15314 239.18909 605.6219 239.18909Q606.27814 239.18909 606.7625 238.65784Q607.2469 238.11096 607.2469 237.18909Q607.2469 236.29846 606.7625 235.78284Q606.29376 235.26721 605.575 235.26721Q604.85626 235.26721 604.35626 235.78284Q603.8719 236.29846 603.8719 237.12659ZM609.90314 233.37659Q609.90314 232.45471 610.35626 231.81409Q610.825 231.17346 611.7 231.17346Q612.5125 231.17346 613.04376 231.75159Q613.575 232.32971 613.575 233.43909Q613.575 234.53284 613.02814 235.12659Q612.4969 235.70471 611.71564 235.70471Q610.9344 235.70471 610.41876 235.12659Q609.90314 234.54846 609.90314 233.37659ZM611.73126 231.89221Q611.34064 231.89221 611.075 232.23596Q610.825 232.57971 610.825 233.48596Q610.825 234.31409 611.075 234.65784Q611.34064 234.98596 611.73126 234.98596Q612.1375 234.98596 612.3875 234.64221Q612.65314 234.29846 612.65314 233.40784Q612.65314 232.56409 612.3875 232.23596Q612.1219 231.89221 611.73126 231.89221ZM611.73126 240.22034L616.4344 231.17346L617.29376 231.17346L612.60626 240.22034L611.73126 240.22034ZM615.45 237.89221Q615.45 236.97034 615.90314 236.32971Q616.3719 235.68909 617.2625 235.68909Q618.075 235.68909 618.60626 236.26721Q619.1375 236.82971 619.1375 237.95471Q619.1375 239.04846 618.59064 239.64221Q618.0594 240.22034 617.2625 240.22034Q616.4969 240.22034 615.96564 239.64221Q615.45 239.06409 615.45 237.89221ZM617.29376 236.40784Q616.8875 236.40784 616.6219 236.75159Q616.3719 237.09534 616.3719 238.00159Q616.3719 238.81409 616.6375 239.15784Q616.90314 239.50159 617.29376 239.50159Q617.6844 239.50159 617.95 239.15784Q618.21564 238.81409 618.21564 237.90784Q618.21564 237.07971 617.95 236.75159Q617.6844 236.40784 617.29376 236.40784Z" fill-rule="nonzero"/><path stroke="#757575" stroke-width="1.0" stroke-linecap="butt" d="M620.2 227.40784L485.6 227.40784L471.2343 227.40784" fill-rule="nonzero"/><path fill="#9e9e9e" d="M473.2343 227.40784C473.2343 226.30327 472.33887 225.40784 471.2343 225.40784C470.12973 225.40784 469.2343 226.30327 469.2343 227.40784C469.2343 228.5124 470.12973 229.40784 471.2343 229.40784C472.33887 229.40784 473.2343 228.5124 473.2343 227.40784" fill-rule="nonzero"/><path fill="#1a1a1a" d="M610.075 356.2L610.075 354.1375L606.35626 354.1375L606.35626 353.16876L610.27814 347.60626L611.1375 347.60626L611.1375 353.16876L612.29376 353.16876L612.29376 354.1375L611.1375 354.1375L611.1375 356.2L610.075 356.2ZM610.075 353.16876L610.075 349.3094L607.3875 353.16876L610.075 353.16876ZM613.7 351.96564Q613.7 350.4344 614.0125 349.5125Q614.325 348.575 614.9344 348.075Q615.5594 347.575 616.4969 347.575Q617.1844 347.575 617.7 347.85626Q618.23126 348.1375 618.575 348.66876Q618.91876 349.1844 619.10626 349.9344Q619.29376 350.6844 619.29376 351.96564Q619.29376 353.48126 618.98126 354.40314Q618.6844 355.325 618.0594 355.84064Q617.45 356.34064 616.4969 356.34064Q615.2625 356.34064 614.54376 355.45Q613.7 354.3875 613.7 351.96564ZM614.77814 351.96564Q614.77814 354.075 615.27814 354.77814Q615.77814 355.48126 616.4969 355.48126Q617.23126 355.48126 617.71564 354.77814Q618.21564 354.075 618.21564 351.96564Q618.21564 349.84064 617.71564 349.15314Q617.23126 348.45 616.48126 348.45Q615.7625 348.45 615.325 349.0594Q614.77814 349.84064 614.77814 351.96564Z" fill-rule="nonzero"/><path fill="#9e9e9e" d="M596.075 373.2L596.075 371.1375L592.35626 371.1375L592.35626 370.16876L596.27814 364.60626L597.1375 364.60626L597.1375 370.16876L598.29376 370.16876L598.29376 371.1375L597.1375 371.1375L597.1375 373.2L596.075 373.2ZM596.075 370.16876L596.075 366.3094L593.3875 370.16876L596.075 370.16876ZM600.29376 373.2L600.29376 371.9969L601.4969 371.9969L601.4969 373.2L600.29376 373.2ZM606.66876 373.2L605.6219 373.2L605.6219 366.48126Q605.23126 366.84064 604.60626 367.21564Q603.9969 367.575 603.5125 367.7469L603.5125 366.73126Q604.3875 366.3094 605.04376 365.73126Q605.71564 365.1375 605.9969 364.575L606.66876 364.575L606.66876 373.2ZM609.90314 366.66876Q609.90314 365.7469 610.35626 365.10626Q610.825 364.46564 611.7 364.46564Q612.5125 364.46564 613.04376 365.04376Q613.575 365.6219 613.575 366.73126Q613.575 367.825 613.02814 368.41876Q612.4969 368.9969 611.71564 368.9969Q610.9344 368.9969 610.41876 368.41876Q609.90314 367.84064 609.90314 366.66876ZM611.73126 365.1844Q611.34064 365.1844 611.075 365.52814Q610.825 365.8719 610.825 366.77814Q610.825 367.60626 611.075 367.95Q611.34064 368.27814 611.73126 368.27814Q612.1375 368.27814 612.3875 367.9344Q612.65314 367.59064 612.65314 366.7Q612.65314 365.85626 612.3875 365.52814Q612.1219 365.1844 611.73126 365.1844ZM611.73126 373.5125L616.4344 364.46564L617.29376 364.46564L612.60626 373.5125L611.73126 373.5125ZM615.45 371.1844Q615.45 370.2625 615.90314 369.6219Q616.3719 368.98126 617.2625 368.98126Q618.075 368.98126 618.60626 369.5594Q619.1375 370.1219 619.1375 371.2469Q619.1375 372.34064 618.59064 372.9344Q618.0594 373.5125 617.2625 373.5125Q616.4969 373.5125 615.96564 372.9344Q615.45 372.35626 615.45 371.1844ZM617.29376 369.7Q616.8875 369.7 616.6219 370.04376Q616.3719 370.3875 616.3719 371.29376Q616.3719 372.10626 616.6375 372.45Q616.90314 372.79376 617.29376 372.79376Q617.6844 372.79376 617.95 372.45Q618.21564 372.10626 618.21564 371.2Q618.21564 370.3719 617.95 370.04376Q617.6844 369.7 617.29376 369.7Z" fill-rule="nonzero"/><path stroke="#757575" stroke-width="1.0" stroke-linecap="butt" d="M620.2 360.7L485.6 360.7L345.68457 366.02866" fill-rule="nonzero"/><path fill="#9e9e9e" d="M347.68457 366.02866C347.68457 364.9241 346.78912 364.02866 345.68457 364.02866C344.58 364.02866 343.68457 364.9241 343.68457 366.02866C343.68457 367.13324 344.58 368.02866 345.68457 368.02866C346.78912 368.02866 347.68457 367.13324 347.68457 366.02866" fill-rule="nonzero"/><path fill="#757575" d="M21.378124 38.8L21.378124 24.4875L27.721874 24.4875Q29.628124 24.4875 30.628124 24.878124Q31.628124 25.253124 32.221874 26.2375Q32.815624 27.20625 32.815624 28.39375Q32.815624 29.909374 31.83125 30.95625Q30.846874 32.003124 28.784374 32.284374Q29.534374 32.64375 29.925 33.003124Q30.753124 33.753124 31.503124 34.909374L33.9875 38.8L31.6125 38.8L29.70625 35.815624Q28.878124 34.534374 28.346874 33.846874Q27.815624 33.159374 27.378124 32.89375Q26.95625 32.6125 26.51875 32.503124Q26.190624 32.440624 25.471874 32.440624L23.26875 32.440624L23.26875 38.8L21.378124 38.8ZM23.26875 30.8L27.346874 30.8Q28.64375 30.8 29.3625 30.534374Q30.096874 30.26875 30.471874 29.675Q30.8625 29.08125 30.8625 28.39375Q30.8625 27.378124 30.128124 26.721874Q29.39375 26.065624 27.8 26.065624L23.26875 26.065624L23.26875 30.8ZM42.221874 35.45625L44.034374 35.690624Q43.6125 37.26875 42.440624 38.159374Q41.284374 39.034374 39.471874 39.034374Q37.20625 39.034374 35.8625 37.64375Q34.534374 36.2375 34.534374 33.70625Q34.534374 31.08125 35.878124 29.64375Q37.221874 28.190624 39.378124 28.190624Q41.45625 28.190624 42.76875 29.6125Q44.096874 31.01875 44.096874 33.596874Q44.096874 33.753124 44.08125 34.065624L36.346874 34.065624Q36.440624 35.76875 37.315624 36.675Q38.190624 37.58125 39.4875 37.58125Q40.45625 37.58125 41.128124 37.08125Q41.815624 36.565624 42.221874 35.45625ZM36.440624 32.6125L42.2375 32.6125Q42.128124 31.315624 41.58125 30.659374Q40.7375 29.64375 39.39375 29.64375Q38.190624 29.64375 37.3625 30.45625Q36.534374 31.253124 36.440624 32.6125ZM52.89375 37.51875Q51.909374 38.346874 51.003124 38.690624Q50.096874 39.034374 49.065624 39.034374Q47.3625 39.034374 46.440624 38.20625Q45.51875 37.3625 45.51875 36.065624Q45.51875 35.3 45.8625 34.675Q46.221874 34.05 46.784374 33.675Q47.346874 33.284374 48.05 33.08125Q48.565624 32.95625 49.6125 32.815624Q51.7375 32.565624 52.7375 32.221874Q52.753124 31.8625 52.753124 31.753124Q52.753124 30.690624 52.253124 30.2375Q51.58125 29.64375 50.253124 29.64375Q49.003124 29.64375 48.409374 30.08125Q47.83125 30.51875 47.55 31.628124L45.83125 31.39375Q46.065624 30.284374 46.596874 29.6125Q47.128124 28.925 48.14375 28.565624Q49.159374 28.190624 50.503124 28.190624Q51.83125 28.190624 52.659374 28.503124Q53.4875 28.815624 53.878124 29.3Q54.26875 29.76875 54.425 30.4875Q54.51875 30.940624 54.51875 32.1125L54.51875 34.45625Q54.51875 36.909374 54.628124 37.565624Q54.7375 38.20625 55.08125 38.8L53.2375 38.8Q52.971874 38.253124 52.89375 37.51875ZM52.7375 33.596874Q51.784374 33.9875 49.8625 34.253124Q48.784374 34.409374 48.33125 34.6125Q47.89375 34.8 47.64375 35.175Q47.39375 35.55 47.39375 36.01875Q47.39375 36.721874 47.925 37.190624Q48.45625 37.659374 49.4875 37.659374Q50.503124 37.659374 51.284374 37.221874Q52.08125 36.76875 52.45625 36.003124Q52.7375 35.39375 52.7375 34.2375L52.7375 33.596874ZM63.846874 38.8L63.846874 37.4875Q62.8625 39.034374 60.940624 39.034374Q59.70625 39.034374 58.659374 38.346874Q57.628124 37.659374 57.05 36.440624Q56.4875 35.221874 56.4875 33.628124Q56.4875 32.065624 57.003124 30.8Q57.51875 29.534374 58.55 28.8625Q59.596874 28.190624 60.8625 28.190624Q61.8 28.190624 62.534374 28.596874Q63.26875 28.9875 63.7375 29.6125L63.7375 24.4875L65.47188 24.4875L65.47188 38.8L63.846874 38.8ZM58.284374 33.628124Q58.284374 35.6125 59.128124 36.596874Q59.971874 37.58125 61.1125 37.58125Q62.26875 37.58125 63.065624 36.64375Q63.878124 35.70625 63.878124 33.76875Q63.878124 31.64375 63.05 30.64375Q62.2375 29.64375 61.034374 29.64375Q59.8625 29.64375 59.065624 30.6125Q58.284374 31.565624 58.284374 33.628124ZM74.26875 38.8L74.26875 24.4875L76.15938 24.4875L76.15938 37.1125L83.20625 37.1125L83.20625 38.8L74.26875 38.8ZM92.22188 35.45625L94.03438 35.690624Q93.6125 37.26875 92.44063 38.159374Q91.28438 39.034374 89.47188 39.034374Q87.20625 39.034374 85.8625 37.64375Q84.53438 36.2375 84.53438 33.70625Q84.53438 31.08125 85.87813 29.64375Q87.22188 28.190624 89.37813 28.190624Q91.45625 28.190624 92.76875 29.6125Q94.09688 31.01875 94.09688 33.596874Q94.09688 33.753124 94.08125 34.065624L86.34688 34.065624Q86.44063 35.76875 87.31563 36.675Q88.19063 37.58125 89.4875 37.58125Q90.45625 37.58125 91.12813 37.08125Q91.81563 36.565624 92.22188 35.45625ZM86.44063 32.6125L92.2375 32.6125Q92.12813 31.315624 91.58125 30.659374Q90.7375 29.64375 89.39375 29.64375Q88.19063 29.64375 87.3625 30.45625Q86.53438 31.253124 86.44063 32.6125ZM96.1125 38.8L96.1125 28.425L97.70625 28.425L97.70625 29.909374Q98.84688 28.190624 101.00313 28.190624Q101.94063 28.190624 102.72188 28.534374Q103.51875 28.8625 103.90938 29.409374Q104.3 29.95625 104.45625 30.70625Q104.55 31.20625 104.55 32.425L104.55 38.8L102.78438 38.8L102.78438 32.4875Q102.78438 31.409374 102.58125 30.878124Q102.37813 30.346874 101.84688 30.034374Q101.33125 29.721874 100.62813 29.721874Q99.50313 29.721874 98.69063 30.440624Q97.87813 31.14375 97.87813 33.128124L97.87813 38.8L96.1125 38.8ZM105.8 39.659374L107.50313 39.909374Q107.6125 40.70625 108.09688 41.065624Q108.75313 41.55 109.89375 41.55Q111.1125 41.55 111.76875 41.065624Q112.44063 40.58125 112.675 39.70625Q112.81563 39.159374 112.8 37.440624Q111.64375 38.8 109.925 38.8Q107.78438 38.8 106.6125 37.253124Q105.44063 35.70625 105.44063 33.55Q105.44063 32.065624 105.97188 30.815624Q106.51875 29.565624 107.53438 28.878124Q108.56563 28.190624 109.94063 28.190624Q111.76875 28.190624 112.97188 29.675L112.97188 28.425L114.58125 28.425L114.58125 37.39375Q114.58125 39.815624 114.08125 40.815624Q113.59688 41.83125 112.51875 42.409374Q111.45625 43.003124 109.89375 43.003124Q108.05 43.003124 106.89375 42.175Q105.75313 41.346874 105.8 39.659374ZM107.25313 33.425Q107.25313 35.471874 108.06563 36.409374Q108.87813 37.346874 110.09688 37.346874Q111.3 37.346874 112.1125 36.409374Q112.94063 35.471874 112.94063 33.4875Q112.94063 31.58125 112.09688 30.6125Q111.25313 29.64375 110.06563 29.64375Q108.89375 29.64375 108.06563 30.596874Q107.25313 31.55 107.25313 33.425ZM120.95625 37.221874L121.20625 38.784374Q120.47188 38.940624 119.87813 38.940624Q118.925 38.940624 118.39375 38.64375Q117.87813 38.33125 117.65938 37.846874Q117.44063 37.346874 117.44063 35.76875L117.44063 29.8L116.15938 29.8L116.15938 28.425L117.44063 28.425L117.44063 25.8625L119.19063 24.8L119.19063 28.425L120.95625 28.425L120.95625 29.8L119.19063 29.8L119.19063 35.8625Q119.19063 36.6125 119.28438 36.83125Q119.37813 37.034374 119.58125 37.175Q119.8 37.3 120.19063 37.3Q120.47188 37.3 120.95625 37.221874ZM123.1125 38.8L123.1125 24.4875L124.87813 24.4875L124.87813 29.6125Q126.1125 28.190624 127.9875 28.190624Q129.12813 28.190624 129.97188 28.64375Q130.83125 29.096874 131.19063 29.909374Q131.56563 30.70625 131.56563 32.221874L131.56563 38.8L129.81563 38.8L129.81563 32.221874Q129.81563 30.909374 129.2375 30.315624Q128.65938 29.70625 127.62813 29.70625Q126.84688 29.70625 126.14375 30.1125Q125.45625 30.51875 125.15938 31.221874Q124.87813 31.909374 124.87813 33.128124L124.87813 38.8L123.1125 38.8Z" fill-rule="nonzero"/></svg>